<svg width="173" height="32" viewBox="0 0 173 32" fill="none" xmlns="http://www.w3.org/2000/svg">
<path d="M15.16 30.36C14.3067 31.1867 12.8267 31.6 10.72 31.6C8.61333 31.6 7.13333 31.1867 6.28 30.36C5.42667 29.5067 4.81333 28.0933 4.44 26.12L0.12 2.48C0.0666668 2.21333 0.0400001 2.02666 0.0400001 1.92C0.0400001 1.44 0.546667 1.2 1.56 1.2C2.57333 1.2 3.13333 1.50666 3.24 2.12L7.56 25.68C7.74667 26.8267 8.04 27.64 8.44 28.12C8.86667 28.5733 9.62667 28.8 10.72 28.8C11.8133 28.8 12.56 28.5733 12.96 28.12C13.3867 27.64 13.6933 26.8267 13.88 25.68L18.2 2.12C18.3067 1.50666 18.8667 1.2 19.88 1.2C20.8933 1.2 21.4 1.44 21.4 1.92C21.4 2.02666 21.3733 2.21333 21.32 2.48L17 26.12C16.6267 28.0933 16.0133 29.5067 15.16 30.36ZM30.6297 20.68V25.68C30.6297 27.76 32.5097 28.8 36.2697 28.8C40.0564 28.8 41.9497 27.76 41.9497 25.68V22.8C41.9497 22.1867 42.483 21.88 43.5497 21.88C44.6164 21.88 45.1497 22.1867 45.1497 22.8V25.28C45.1497 27.4933 44.3497 29.1067 42.7497 30.12C41.1497 31.1067 39.003 31.6 36.3097 31.6C33.643 31.6 31.4964 31.1067 29.8697 30.12C28.243 29.1067 27.4297 27.4933 27.4297 25.28V20.68C27.4297 17.9333 28.603 16.28 30.9497 15.72C28.8697 15.08 27.8297 13.4533 27.8297 10.84V7.12C27.8297 4.90667 28.643 3.30667 30.2697 2.32C31.8964 1.30667 33.963 0.799998 36.4697 0.799998C39.003 0.799998 41.003 1.30667 42.4697 2.32C43.9364 3.33333 44.6697 4.93333 44.6697 7.12V7.72C44.6697 8.33333 44.1364 8.64 43.0697 8.64C42.003 8.64 41.4697 8.33333 41.4697 7.72V6.72C41.4697 4.64 39.723 3.6 36.2297 3.6C32.763 3.6 31.0297 4.64 31.0297 6.72V10.84C31.0297 13.1867 32.4697 14.36 35.3497 14.36H38.3497C38.883 14.36 39.1497 14.8267 39.1497 15.76C39.1497 16.6933 38.883 17.16 38.3497 17.16H34.9497C32.0697 17.16 30.6297 18.3333 30.6297 20.68ZM50.3313 16.64H63.3313C63.8646 16.64 64.1313 17.1067 64.1313 18.04C64.1313 18.9733 63.8646 19.44 63.3313 19.44H50.3313C49.7979 19.44 49.5313 18.9733 49.5313 18.04C49.5313 17.1067 49.7979 16.64 50.3313 16.64ZM84.405 25.68V21.16C84.405 20.28 84.0583 19.64 83.365 19.24C82.6717 18.84 81.4717 18.44 79.765 18.04L76.205 17.24C74.5783 16.8667 73.3517 16.4533 72.525 16C70.765 15.0667 69.885 13.1333 69.885 10.2V7.12C69.885 4.90667 70.6717 3.30667 72.245 2.32C73.845 1.30667 75.9517 0.799998 78.565 0.799998C81.1783 0.799998 83.2717 1.30667 84.845 2.32C86.4183 3.30667 87.205 4.90667 87.205 7.12V8.88C87.205 9.49333 86.6717 9.8 85.605 9.8C84.5383 9.8 84.005 9.49333 84.005 8.88V6.72C84.005 4.64 82.1783 3.6 78.525 3.6C74.8983 3.6 73.085 4.64 73.085 6.72V10.12C73.085 11.5867 73.2983 12.6 73.725 13.16C74.1783 13.6933 75.005 14.0933 76.205 14.36L79.765 15.16C82.325 15.72 83.7783 16.1067 84.125 16.32C84.4983 16.5067 84.925 16.72 85.405 16.96C85.885 17.2 86.205 17.4533 86.365 17.72C86.5517 17.96 86.765 18.2667 87.005 18.64C87.405 19.2533 87.605 20.2 87.605 21.48V25.28C87.605 27.4667 86.725 29.0667 84.965 30.08C83.2317 31.0933 81.0317 31.6 78.365 31.6C75.725 31.6 73.5517 31.0933 71.845 30.08C70.165 29.0667 69.325 27.4667 69.325 25.28V23.52C69.325 22.9067 69.8583 22.6 70.925 22.6C71.9917 22.6 72.525 22.9067 72.525 23.52V25.68C72.525 26.7733 73.0717 27.5733 74.165 28.08C75.285 28.56 76.685 28.8 78.365 28.8C80.0717 28.8 81.4983 28.5467 82.645 28.04C83.8183 27.5333 84.405 26.7467 84.405 25.68ZM100.013 2.32V7H104.213C104.746 7 105.013 7.46667 105.013 8.4C105.013 9.33333 104.746 9.8 104.213 9.8H100.013V26.32C100.013 27.1733 100.213 27.9733 100.613 28.72C101.013 29.44 101.213 29.8133 101.213 29.84C101.213 30.16 100.959 30.5067 100.453 30.88C99.9458 31.2267 99.5192 31.4 99.1725 31.4C98.6125 31.4 98.0792 30.92 97.5725 29.96C97.0658 28.9733 96.8125 27.8933 96.8125 26.72V9.8H93.6125C93.0792 9.8 92.8125 9.33333 92.8125 8.4C92.8125 7.46667 93.0792 7 93.6125 7H96.8125V2.32C96.8125 1.70667 97.3458 1.4 98.4125 1.4C99.4792 1.4 100.013 1.70667 100.013 2.32ZM124.323 25.68V12.32C124.323 10.24 122.496 9.2 118.843 9.2C115.216 9.2 113.403 10.24 113.403 12.32V25.68C113.403 27.76 115.216 28.8 118.843 28.8C122.496 28.8 124.323 27.76 124.323 25.68ZM127.523 12.72V25.28C127.523 27.4933 126.736 29.1067 125.163 30.12C123.59 31.1067 121.496 31.6 118.883 31.6C116.27 31.6 114.163 31.1067 112.563 30.12C110.99 29.1067 110.203 27.4933 110.203 25.28V12.72C110.203 10.5067 110.99 8.90667 112.563 7.92C114.136 6.90667 116.23 6.4 118.843 6.4C121.456 6.4 123.55 6.90667 125.123 7.92C126.723 8.90667 127.523 10.5067 127.523 12.72ZM146.556 14.32V12.32C146.556 10.24 145.316 9.2 142.836 9.2C140.356 9.2 139.116 10.24 139.116 12.32V30.68C139.116 31.2933 138.582 31.6 137.516 31.6C136.449 31.6 135.916 31.2933 135.916 30.68V12.72C135.916 10.5067 136.542 8.90667 137.796 7.92C139.076 6.90667 140.756 6.4 142.836 6.4C147.449 6.4 149.756 8.48 149.756 12.64V14.32C149.756 14.9333 149.222 15.24 148.156 15.24C147.089 15.24 146.556 14.9333 146.556 14.32ZM172.059 12.64V13.84C172.059 16.1067 171.592 17.6667 170.659 18.52C169.726 19.3733 168.019 19.92 165.539 20.16L157.739 20.92V25.68C157.739 27.76 159.472 28.8 162.939 28.8C166.886 28.8 168.859 27.8933 168.859 26.08V24.56C168.859 23.9467 169.392 23.64 170.459 23.64C171.526 23.64 172.059 23.9467 172.059 24.56V25.68C172.059 29.6267 169.126 31.6 163.259 31.6C160.672 31.6 158.566 31.0933 156.939 30.08C155.339 29.0667 154.539 27.4667 154.539 25.28V12.72C154.539 10.5067 155.392 8.90667 157.099 7.92C158.806 6.90667 161.032 6.4 163.779 6.4C166.526 6.4 168.592 6.88 169.979 7.84C171.366 8.8 172.059 10.4 172.059 12.64ZM157.739 12.32V18.12L165.259 17.36C166.779 17.2 167.752 16.88 168.179 16.4C168.632 15.92 168.859 15.0667 168.859 13.84V12.32C168.859 10.24 167.006 9.2 163.299 9.2C159.592 9.2 157.739 10.24 157.739 12.32Z" fill="black"/>
</svg>
